<?xml version="1.0" encoding="UTF-8"?>
<svg id="Layer_2" xmlns="http://www.w3.org/2000/svg" version="1.1" viewBox="0 0 102.3 48">
  <!-- Generator: Adobe Illustrator 29.3.1, SVG Export Plug-In . SVG Version: 2.1.0 Build 151)  -->
  <defs>
    <style>
      .st0 {
        fill: #204f9c;
      }

      .st1 {
        fill: #fff;
        font-family: Gentona-Bold, Gentona;
        font-size: 10px;
        font-weight: 700;
        isolation: isolate;
      }
    </style>
  </defs>
  <rect class="st0" width="102.3" height="48" rx="13.6" ry="13.6"/>
  <text class="st1" transform="translate(11.3 15.1)"><tspan x="0" y="0">C</tspan></text>
  <text class="st1" transform="translate(17.4 15.1)"><tspan x="0" y="0">hec</tspan></text>
  <text class="st1" transform="translate(33 15.1)"><tspan x="0" y="0">k </tspan></text>
  <text class="st1" transform="translate(40.5 15.1)"><tspan x="0" y="0">y</tspan></text>
  <text class="st1" transform="translate(45.8 15.1)"><tspan x="0" y="0">o</tspan></text>
  <text class="st1" transform="translate(51.3 15.1)"><tspan x="0" y="0">ur </tspan></text>
  <text class="st1" transform="translate(63.1 15.1)"><tspan x="0" y="0">s</tspan></text>
  <text class="st1" transform="translate(67.6 15.1)"><tspan x="0" y="0">t</tspan></text>
  <text class="st1" transform="translate(71.5 15.1)"><tspan x="0" y="0">a</tspan></text>
  <text class="st1" transform="translate(76.7 15.1)"><tspan x="0" y="0">tu</tspan></text>
  <text class="st1" transform="translate(86.2 15.1)"><tspan x="0" y="0">s</tspan></text>
  <text class="st1" transform="translate(12.3 27.1)"><tspan x="0" y="0">&amp; </tspan></text>
  <text class="st1" transform="translate(21 27.1)"><tspan x="0" y="0">s</tspan></text>
  <text class="st1" transform="translate(25.7 27.1)"><tspan x="0" y="0">u</tspan></text>
  <text class="st1" transform="translate(31.4 27.1)"><tspan x="0" y="0">b</tspan></text>
  <text class="st1" transform="translate(37 27.1)"><tspan x="0" y="0">m</tspan></text>
  <text class="st1" transform="translate(45.4 27.1)"><tspan x="0" y="0">i</tspan></text>
  <text class="st1" transform="translate(48 27.1)"><tspan x="0" y="0">t </tspan></text>
  <text class="st1" transform="translate(53.9 27.1)"><tspan x="0" y="0">r</tspan></text>
  <text class="st1" transform="translate(57.8 27.1)"><tspan x="0" y="0">e</tspan></text>
  <text class="st1" transform="translate(63 27.1)"><tspan x="0" y="0">c</tspan></text>
  <text class="st1" transform="translate(67.8 27.1)"><tspan x="0" y="0">e</tspan></text>
  <text class="st1" transform="translate(73 27.1)"><tspan x="0" y="0">i</tspan></text>
  <text class="st1" transform="translate(75.7 27.1)"><tspan x="0" y="0">p</tspan></text>
  <text class="st1" transform="translate(81.3 27.1)"><tspan x="0" y="0">t</tspan></text>
  <text class="st1" transform="translate(85.2 27.1)"><tspan x="0" y="0">s</tspan></text>
  <text class="st1" transform="translate(20.7 38.6)"><tspan x="0" y="0">to SG Finance</tspan></text>
</svg>