<?xml version="1.0" encoding="UTF-8"?>
<svg id="Layer_2" xmlns="http://www.w3.org/2000/svg" version="1.1" xmlns:xlink="http://www.w3.org/1999/xlink" viewBox="0 0 72.9 72.9">
  <!-- Generator: Adobe Illustrator 29.3.1, SVG Export Plug-In . SVG Version: 2.1.0 Build 151)  -->
  <defs>
    <style>
      .st0, .st1 {
        isolation: isolate;
      }

      .st1 {
        fill: #fff;
        font-family: Gentona-Bold, Gentona;
        font-size: 10px;
        font-weight: 700;
      }

      .st2 {
        fill: url(#New_Gradient_Swatch_1);
      }
    </style>
    <linearGradient id="New_Gradient_Swatch_1" data-name="New Gradient Swatch 1" x1="36.5" y1="72.9" x2="36.5" y2="0" gradientUnits="userSpaceOnUse">
      <stop offset="0" stop-color="#204f9c"/>
      <stop offset="1" stop-color="#0e2447"/>
    </linearGradient>
  </defs>
  <g id="Layer_1-2">
    <g>
      <circle class="st2" cx="36.5" cy="36.5" r="36.5"/>
      <g class="st0">
        <text class="st1" transform="translate(7.4 33.3)"><tspan x="0" y="0">A</tspan></text>
        <text class="st1" transform="translate(14.3 33.3)"><tspan x="0" y="0">p</tspan></text>
        <text class="st1" transform="translate(19.9 33.3)"><tspan x="0" y="0">p</tspan></text>
        <text class="st1" transform="translate(25.5 33.3)"><tspan x="0" y="0">l</tspan></text>
        <text class="st1" transform="translate(28 33.3)"><tspan x="0" y="0">y </tspan></text>
        <text class="st1" transform="translate(35.6 33.3)"><tspan x="0" y="0">fo</tspan></text>
        <text class="st1" transform="translate(44.7 33.3)"><tspan x="0" y="0">r </tspan></text>
        <text class="st1" transform="translate(50.8 33.3)"><tspan x="0" y="0">t</tspan></text>
        <text class="st1" transform="translate(54.6 33.3)"><tspan x="0" y="0">h</tspan></text>
        <text class="st1" transform="translate(60.2 33.3)"><tspan x="0" y="0">e</tspan></text>
        <text class="st1" transform="translate(9.3 45.3)"><tspan x="0" y="0">T</tspan></text>
        <text class="st1" transform="translate(14.8 45.3)"><tspan x="0" y="0">rav</tspan></text>
        <text class="st1" transform="translate(28.7 45.3)"><tspan x="0" y="0">e</tspan></text>
        <text class="st1" transform="translate(34 45.3)"><tspan x="0" y="0">l </tspan></text>
        <text class="st1" transform="translate(38.5 45.3)"><tspan x="0" y="0">G</tspan></text>
        <text class="st1" transform="translate(45.2 45.3)"><tspan x="0" y="0">r</tspan></text>
        <text class="st1" transform="translate(48.9 45.3)"><tspan x="0" y="0">a</tspan></text>
        <text class="st1" transform="translate(54.1 45.3)"><tspan x="0" y="0">n</tspan></text>
        <text class="st1" transform="translate(59.7 45.3)"><tspan x="0" y="0">t</tspan></text>
      </g>
    </g>
  </g>
</svg>