<?xml version="1.0" encoding="UTF-8"?>
<svg id="Layer_2" xmlns="http://www.w3.org/2000/svg" version="1.1" xmlns:xlink="http://www.w3.org/1999/xlink" viewBox="0 0 104.7 72.9">
  <!-- Generator: Adobe Illustrator 29.3.1, SVG Export Plug-In . SVG Version: 2.1.0 Build 151)  -->
  <defs>
    <style>
      .st0 {
        fill: #fff;
        font-family: Gentona-Bold, Gentona;
        font-size: 10px;
        font-weight: 700;
        isolation: isolate;
      }

      .st1 {
        fill: url(#New_Gradient_Swatch_1);
      }
    </style>
    <linearGradient id="New_Gradient_Swatch_1" data-name="New Gradient Swatch 1" x1="52.3" y1="72.9" x2="52.3" y2="0" gradientUnits="userSpaceOnUse">
      <stop offset="0" stop-color="#204f9c"/>
      <stop offset="1" stop-color="#0e2447"/>
    </linearGradient>
  </defs>
  <polygon class="st1" points="104.7 36.5 52.3 72.9 0 36.5 52.3 0 104.7 36.5"/>
  <text class="st0" transform="translate(20.4 33.8)"><tspan x="0" y="0">H</tspan></text>
  <text class="st0" transform="translate(26.9 33.8)"><tspan x="0" y="0">av</tspan></text>
  <text class="st0" transform="translate(37.1 33.8)"><tspan x="0" y="0">e </tspan></text>
  <text class="st0" transform="translate(44.4 33.8)"><tspan x="0" y="0">y</tspan></text>
  <text class="st0" transform="translate(49.6 33.8)"><tspan x="0" y="0">o</tspan></text>
  <text class="st0" transform="translate(55.1 33.8)"><tspan x="0" y="0">ur</tspan></text>
  <text class="st0" transform="translate(64.9 33.8)"><tspan x="0" y="0"> </tspan></text>
  <text class="st0" transform="translate(66.5 33.8)"><tspan x="0" y="0">T</tspan></text>
  <text class="st0" transform="translate(71.4 33.8)"><tspan x="0" y="0">A</tspan></text>
  <text class="st0" transform="translate(78.2 33.8)"><tspan x="0" y="0">R</tspan></text>
  <text class="st0" transform="translate(27.8 45.8)"><tspan x="0" y="0">a</tspan></text>
  <text class="st0" transform="translate(32.9 45.8)"><tspan x="0" y="0">p</tspan></text>
  <text class="st0" transform="translate(38.5 45.8)"><tspan x="0" y="0">p</tspan></text>
  <text class="st0" transform="translate(44.1 45.8)"><tspan x="0" y="0">r</tspan></text>
  <text class="st0" transform="translate(48 45.8)"><tspan x="0" y="0">ov</tspan></text>
  <text class="st0" transform="translate(58.6 45.8)"><tspan x="0" y="0">e</tspan></text>
  <text class="st0" transform="translate(63.8 45.8)"><tspan x="0" y="0">d?</tspan></text>
</svg>