<?xml version="1.0" encoding="UTF-8"?>
<svg id="Layer_2" xmlns="http://www.w3.org/2000/svg" version="1.1" xmlns:xlink="http://www.w3.org/1999/xlink" viewBox="0 0 129.2 63.3">
  <!-- Generator: Adobe Illustrator 29.3.1, SVG Export Plug-In . SVG Version: 2.1.0 Build 151)  -->
  <defs>
    <style>
      .st0, .st1 {
        isolation: isolate;
      }

      .st1 {
        fill: #fff;
        font-family: Gentona-Bold, Gentona;
        font-size: 10px;
        font-weight: 700;
      }

      .st2 {
        fill: url(#New_Gradient_Swatch_1);
      }
    </style>
    <linearGradient id="New_Gradient_Swatch_1" data-name="New Gradient Swatch 1" x1="64.6" y1="63.3" x2="64.6" y2="0" gradientUnits="userSpaceOnUse">
      <stop offset="0" stop-color="#204f9c"/>
      <stop offset="1" stop-color="#0e2447"/>
    </linearGradient>
  </defs>
  <g id="Layer_1-2">
    <g>
      <polygon class="st2" points="129.2 31.6 64.6 63.3 0 31.6 64.6 0 129.2 31.6"/>
      <g class="st0">
        <g class="st0">
          <text class="st1" transform="translate(21.2 31.6)"><tspan x="0" y="0">I</tspan></text>
        </g>
        <g class="st0">
          <text class="st1" transform="translate(24 31.6)"><tspan x="0" y="0">s</tspan></text>
        </g>
        <g class="st0">
          <text class="st1" transform="translate(30.8 31.6)"><tspan x="0" y="0">y</tspan></text>
        </g>
        <g class="st0">
          <text class="st1" transform="translate(36 31.6)"><tspan x="0" y="0">o</tspan></text>
        </g>
        <g class="st0">
          <text class="st1" transform="translate(41.5 31.6)"><tspan x="0" y="0">ur</tspan></text>
        </g>
        <g class="st0">
          <text class="st1" transform="translate(53.3 31.6)"><tspan x="0" y="0">d</tspan></text>
        </g>
        <g class="st0">
          <text class="st1" transform="translate(58.9 31.6)"><tspan x="0" y="0">e</tspan></text>
        </g>
        <g class="st0">
          <text class="st1" transform="translate(64.2 31.6)"><tspan x="0" y="0">p</tspan></text>
        </g>
        <g class="st0">
          <text class="st1" transform="translate(69.8 31.6)"><tspan x="0" y="0">a</tspan></text>
        </g>
        <g class="st0">
          <text class="st1" transform="translate(75 31.6)"><tspan x="0" y="0">r</tspan></text>
        </g>
        <g class="st0">
          <text class="st1" transform="translate(79 31.6)"><tspan x="0" y="0">t</tspan></text>
        </g>
        <g class="st0">
          <text class="st1" transform="translate(83 31.6)"><tspan x="0" y="0">men</tspan></text>
        </g>
        <g class="st0">
          <text class="st1" transform="translate(102.1 31.6)"><tspan x="0" y="0">t</tspan></text>
        </g>
        <g class="st0">
          <text class="st1" transform="translate(45.7 43.6)"><tspan x="0" y="0">el</tspan></text>
        </g>
        <g class="st0">
          <text class="st1" transform="translate(53.8 43.6)"><tspan x="0" y="0">i</tspan></text>
        </g>
        <g class="st0">
          <text class="st1" transform="translate(56.4 43.6)"><tspan x="0" y="0">gib</tspan></text>
        </g>
        <g class="st0">
          <text class="st1" transform="translate(70.3 43.6)"><tspan x="0" y="0">l</tspan></text>
        </g>
        <g class="st0">
          <text class="st1" transform="translate(72.8 43.6)"><tspan x="0" y="0">e?</tspan></text>
        </g>
      </g>
    </g>
  </g>
</svg>